<svg width="250" height="278" viewBox="0 0 250 278" fill="none" xmlns="http://www.w3.org/2000/svg">
<path d="M-0.000210941 45.824L27.9678 1.02397H51.4558L79.3598 45.824H58.0478L54.2078 38.848H25.3438L21.3118 45.824H-0.000210941ZM33.8558 24L31.6798 27.84H48.1278L46.0158 24L40.7038 13.12H39.4238L33.8558 24ZM82.6583 45.824V1.02397H102.498V30.976H162.018V45.824H82.6583ZM202.728 46.848C194.621 46.848 187.581 45.9306 181.608 44.096C175.677 42.2186 171.09 39.552 167.848 36.096C164.648 32.64 163.048 28.544 163.048 23.808V23.04C163.048 18.2613 164.648 14.1653 167.848 10.752C171.09 7.29597 175.677 4.65064 181.608 2.81597C187.581 0.938639 194.621 -2.67029e-05 202.728 -2.67029e-05C210.877 -2.67029e-05 217.917 0.938639 223.848 2.81597C229.778 4.65064 234.344 7.29597 237.544 10.752C240.786 14.1653 242.408 18.2613 242.408 23.04V23.808C242.408 28.544 240.786 32.64 237.544 36.096C234.344 39.552 229.778 42.2186 223.848 44.096C217.917 45.9306 210.877 46.848 202.728 46.848ZM202.728 32.128C208.573 32.128 213.181 31.4026 216.552 29.952C219.965 28.4586 221.672 26.4106 221.672 23.808V23.04C221.672 20.4373 219.965 18.4106 216.552 16.96C213.181 15.4666 208.573 14.72 202.728 14.72C196.925 14.72 192.317 15.4666 188.904 16.96C185.49 18.4106 183.784 20.4373 183.784 23.04V23.808C183.784 26.4106 185.49 28.4586 188.904 29.952C192.317 31.4026 196.925 32.128 202.728 32.128ZM42.9438 123.848C16.4905 123.848 3.26379 115.336 3.26379 98.312V78.024H23.1038V97.672C23.1038 105.309 29.7171 109.128 42.9438 109.128C56.1705 109.128 62.7838 105.309 62.7838 97.672V78.024H82.6238V98.312C82.6238 115.336 69.3971 123.848 42.9438 123.848ZM89.2208 122.824V78.024H153.029C157.594 78.024 161.093 79.048 163.525 81.096C165.957 83.1013 167.173 85.8746 167.173 89.416C167.173 92.1466 166.341 94.3653 164.677 96.072C163.013 97.7786 160.41 98.952 156.869 99.592V100.872C160.751 101.213 163.674 102.323 165.637 104.2C167.599 106.035 168.581 108.424 168.581 111.368V122.824H147.845V112.008C147.845 111.24 147.61 110.621 147.141 110.152C146.671 109.683 146.031 109.448 145.221 109.448H109.061V122.824H89.2208ZM109.061 97.288H143.941C144.751 97.288 145.391 97.032 145.861 96.52C146.33 96.008 146.565 95.3253 146.565 94.472C146.565 93.5333 146.309 92.8293 145.797 92.36C145.285 91.8906 144.666 91.656 143.941 91.656H109.061V97.288ZM170.25 122.824L198.218 78.024H221.706L249.61 122.824H228.298L224.458 115.848H195.594L191.562 122.824H170.25ZM204.106 101L201.93 104.84H218.378L216.266 101L210.954 90.12H209.674L204.106 101ZM4.09579 199.824V155.024H33.7278L43.7758 174.416L53.8238 155.024H83.4558V199.824H64.2558V172.304L64.1918 172.496L49.9838 199.824H37.5678L23.3598 172.496L23.2958 172.304V199.824H4.09579ZM86.8123 199.824L114.78 155.024H138.268L166.172 199.824H144.86L141.02 192.848H112.156L108.124 199.824H86.8123ZM120.668 178L118.492 181.84H134.94L132.828 178L127.516 167.12H126.236L120.668 178ZM168.136 199.824V184.976H197.896V169.872H168.136V155.024H247.496V169.872H217.736V184.976H247.496V199.824H168.136ZM45.0558 277.848C39.8505 277.848 34.6025 277.507 29.3118 276.824C24.0211 276.184 18.9651 275.331 14.1438 274.264C9.32246 273.155 5.03446 271.96 1.27979 270.68L7.23179 260.248C14.3998 262.936 21.2265 264.685 27.7118 265.496C34.2398 266.264 40.4905 266.648 46.4638 266.648C50.9011 266.648 54.2505 266.477 56.5118 266.136C58.7731 265.752 59.9038 265.155 59.9038 264.344C59.9038 263.619 59.0718 263.107 57.4078 262.808C55.7865 262.509 53.5891 262.339 50.8158 262.296C48.0425 262.211 44.9491 262.125 41.5358 262.04C38.1651 261.955 34.6665 261.805 31.0398 261.592C27.4558 261.379 23.9785 260.995 20.6078 260.44C17.2371 259.843 14.2078 258.989 11.5198 257.88C8.83179 256.771 6.67712 255.299 5.05579 253.464C3.47712 251.629 2.68779 249.325 2.68779 246.552C2.68779 243.651 3.58379 241.197 5.37579 239.192C7.21046 237.187 9.70646 235.587 12.8638 234.392C16.0211 233.197 19.6265 232.344 23.6798 231.832C27.7758 231.277 32.0638 231 36.5438 231C40.5545 231 44.5865 231.192 48.6398 231.576C52.7358 231.917 56.7038 232.408 60.5438 233.048C64.3838 233.645 67.9465 234.349 71.2318 235.16C74.5171 235.971 77.3331 236.824 79.6798 237.72L73.7278 248.152C70.1011 246.872 66.0905 245.805 61.6958 244.952C57.3438 244.056 52.8211 243.395 48.1278 242.968C43.4345 242.499 38.7838 242.264 34.1758 242.264C27.0505 242.264 23.4878 243.011 23.4878 244.504C23.4878 245.187 24.3198 245.677 25.9838 245.976C27.6478 246.275 29.8665 246.467 32.6398 246.552C35.4558 246.595 38.5491 246.659 41.9198 246.744C45.2478 246.829 48.7038 246.979 52.2878 247.192C55.9145 247.405 59.3918 247.789 62.7198 248.344C66.0905 248.899 69.1198 249.731 71.8078 250.84C74.5385 251.907 76.6931 253.336 78.2718 255.128C79.8505 256.92 80.6398 259.16 80.6398 261.848C80.6398 264.792 79.6585 267.288 77.6958 269.336C75.7758 271.384 73.1518 273.048 69.8238 274.328C66.4958 275.565 62.6985 276.461 58.4318 277.016C54.1651 277.571 49.7065 277.848 45.0558 277.848ZM123.353 277.848C115.246 277.848 108.206 276.931 102.233 275.096C96.3021 273.219 91.7155 270.552 88.4728 267.096C85.2728 263.64 83.6728 259.544 83.6728 254.808V254.04C83.6728 249.261 85.2728 245.165 88.4728 241.752C91.7155 238.296 96.3021 235.651 102.233 233.816C108.206 231.939 115.246 231 123.353 231C131.502 231 138.542 231.939 144.473 233.816C150.403 235.651 154.969 238.296 158.169 241.752C161.411 245.165 163.033 249.261 163.033 254.04V254.808C163.033 259.544 161.411 263.64 158.169 267.096C154.969 270.552 150.403 273.219 144.473 275.096C138.542 276.931 131.502 277.848 123.353 277.848ZM123.353 263.128C129.198 263.128 133.806 262.403 137.177 260.952C140.59 259.459 142.297 257.411 142.297 254.808V254.04C142.297 251.437 140.59 249.411 137.177 247.96C133.806 246.467 129.198 245.72 123.353 245.72C117.55 245.72 112.942 246.467 109.529 247.96C106.115 249.411 104.409 251.437 104.409 254.04V254.808C104.409 257.411 106.115 259.459 109.529 260.952C112.942 262.403 117.55 263.128 123.353 263.128ZM168.158 276.824V232.024H187.742L227.678 256.728V232.024H247.518V276.824H227.934L187.998 252.12V276.824H168.158Z" fill="white"/>
</svg>
