<svg xmlns="http://www.w3.org/2000/svg" xmlns:xlink="http://www.w3.org/1999/xlink" width="112" zoomAndPan="magnify" viewBox="0 0 84 21.75" height="29" preserveAspectRatio="xMidYMid meet" version="1.0"><defs><clipPath id="d946d36105"><path d="M 0.476562 0.265625 L 21.238281 0.265625 L 21.238281 21.027344 L 0.476562 21.027344 Z M 0.476562 0.265625 " clip-rule="nonzero"/></clipPath><clipPath id="a165634271"><path d="M 31.363281 0.265625 L 52.125 0.265625 L 52.125 21.027344 L 31.363281 21.027344 Z M 31.363281 0.265625 " clip-rule="nonzero"/></clipPath><clipPath id="4adc5ebd5f"><path d="M 62.175781 0 L 82.9375 0 L 82.9375 20.761719 L 62.175781 20.761719 Z M 62.175781 0 " clip-rule="nonzero"/></clipPath></defs><g clip-path="url(#d946d36105)"><path fill="#ffffff" d="M 21.242188 10.6875 C 21.242188 4.933594 16.59375 0.269531 10.859375 0.269531 C 5.125 0.269531 0.476562 4.933594 0.476562 10.6875 C 0.476562 15.574219 3.828125 19.671875 8.351562 20.796875 L 8.351562 13.871094 L 6.210938 13.871094 L 6.210938 10.6875 L 8.351562 10.6875 L 8.351562 9.316406 C 8.351562 5.769531 9.949219 4.125 13.417969 4.125 C 14.078125 4.125 15.210938 4.253906 15.675781 4.386719 L 15.675781 7.269531 C 15.429688 7.246094 15.003906 7.230469 14.476562 7.230469 C 12.773438 7.230469 12.117188 7.878906 12.117188 9.5625 L 12.117188 10.6875 L 15.507812 10.6875 L 14.925781 13.871094 L 12.117188 13.871094 L 12.117188 21.027344 C 17.257812 20.40625 21.242188 16.011719 21.242188 10.6875 Z M 21.242188 10.6875 " fill-opacity="1" fill-rule="nonzero"/></g><g clip-path="url(#a165634271)"><path fill="#ffffff" d="M 37.441406 0.339844 C 36.339844 0.390625 35.585938 0.566406 34.925781 0.824219 C 34.242188 1.09375 33.664062 1.449219 33.089844 2.027344 C 32.515625 2.605469 32.160156 3.183594 31.898438 3.867188 C 31.640625 4.527344 31.46875 5.28125 31.417969 6.386719 C 31.371094 7.492188 31.359375 7.84375 31.363281 10.664062 C 31.371094 13.480469 31.382812 13.835938 31.433594 14.941406 C 31.488281 16.046875 31.664062 16.800781 31.921875 17.460938 C 32.1875 18.140625 32.542969 18.71875 33.121094 19.292969 C 33.699219 19.871094 34.277344 20.222656 34.960938 20.488281 C 35.621094 20.742188 36.378906 20.917969 37.480469 20.964844 C 38.589844 21.015625 38.941406 21.023438 41.757812 21.019531 C 44.578125 21.015625 44.929688 21 46.039062 20.949219 C 47.140625 20.894531 47.894531 20.71875 48.554688 20.460938 C 49.238281 20.195312 49.816406 19.839844 50.390625 19.261719 C 50.964844 18.683594 51.320312 18.105469 51.582031 17.421875 C 51.839844 16.761719 52.011719 16.007812 52.0625 14.902344 C 52.109375 13.796875 52.121094 13.441406 52.117188 10.625 C 52.109375 7.808594 52.097656 7.453125 52.046875 6.347656 C 51.992188 5.242188 51.816406 4.488281 51.558594 3.828125 C 51.292969 3.144531 50.9375 2.570312 50.359375 1.992188 C 49.78125 1.417969 49.203125 1.0625 48.519531 0.800781 C 47.859375 0.546875 47.101562 0.371094 46 0.324219 C 44.890625 0.273438 44.539062 0.261719 41.71875 0.269531 C 38.902344 0.273438 38.550781 0.285156 37.441406 0.339844 M 37.5625 19.097656 C 36.554688 19.050781 36.003906 18.882812 35.636719 18.742188 C 35.152344 18.554688 34.804688 18.332031 34.441406 17.96875 C 34.078125 17.605469 33.851562 17.261719 33.664062 16.777344 C 33.519531 16.414062 33.351562 15.863281 33.300781 14.851562 C 33.25 13.757812 33.238281 13.429688 33.234375 10.660156 C 33.230469 7.890625 33.238281 7.5625 33.285156 6.46875 C 33.328125 5.457031 33.5 4.90625 33.640625 4.539062 C 33.828125 4.054688 34.050781 3.710938 34.414062 3.347656 C 34.777344 2.980469 35.121094 2.757812 35.605469 2.566406 C 35.972656 2.425781 36.519531 2.253906 37.53125 2.207031 C 38.625 2.15625 38.953125 2.144531 41.722656 2.136719 C 44.492188 2.132812 44.820312 2.140625 45.917969 2.191406 C 46.925781 2.234375 47.476562 2.402344 47.84375 2.542969 C 48.328125 2.730469 48.675781 2.953125 49.039062 3.316406 C 49.402344 3.679688 49.628906 4.023438 49.816406 4.507812 C 49.960938 4.875 50.128906 5.425781 50.175781 6.433594 C 50.230469 7.527344 50.242188 7.855469 50.246094 10.625 C 50.25 13.398438 50.242188 13.726562 50.191406 14.820312 C 50.148438 15.832031 49.980469 16.378906 49.839844 16.746094 C 49.652344 17.230469 49.429688 17.578125 49.066406 17.941406 C 48.703125 18.304688 48.359375 18.527344 47.875 18.71875 C 47.507812 18.863281 46.960938 19.03125 45.949219 19.078125 C 44.855469 19.132812 44.527344 19.144531 41.753906 19.148438 C 38.984375 19.152344 38.65625 19.144531 37.5625 19.09375 M 46.023438 5.097656 C 46.023438 5.785156 46.582031 6.339844 47.269531 6.339844 C 47.957031 6.339844 48.515625 5.78125 48.511719 5.09375 C 48.511719 4.40625 47.953125 3.847656 47.265625 3.847656 C 46.578125 3.851562 46.019531 4.410156 46.023438 5.097656 M 36.410156 10.652344 C 36.417969 13.597656 38.808594 15.976562 41.75 15.972656 C 44.691406 15.964844 47.074219 13.574219 47.066406 10.632812 C 47.0625 7.691406 44.671875 5.3125 41.730469 5.316406 C 38.789062 5.320312 36.40625 7.710938 36.410156 10.652344 M 38.28125 10.648438 C 38.277344 8.738281 39.824219 7.1875 41.734375 7.183594 C 43.644531 7.179688 45.195312 8.726562 45.199219 10.636719 C 45.203125 12.546875 43.65625 14.097656 41.746094 14.101562 C 39.835938 14.105469 38.285156 12.558594 38.28125 10.648438 " fill-opacity="1" fill-rule="nonzero"/></g><g clip-path="url(#4adc5ebd5f)"><path fill="#ffffff" d="M 83.277344 10.550781 C 83.277344 11.242188 83.210938 11.929688 83.074219 12.609375 C 82.9375 13.289062 82.738281 13.949219 82.472656 14.589844 C 82.207031 15.226562 81.882812 15.835938 81.5 16.414062 C 81.113281 16.988281 80.675781 17.519531 80.1875 18.011719 C 79.695312 18.5 79.164062 18.9375 78.585938 19.324219 C 78.011719 19.707031 77.402344 20.03125 76.765625 20.296875 C 76.125 20.5625 75.464844 20.761719 74.785156 20.898438 C 74.105469 21.035156 73.417969 21.101562 72.726562 21.101562 C 72.035156 21.101562 71.347656 21.035156 70.667969 20.898438 C 69.988281 20.761719 69.328125 20.5625 68.6875 20.296875 C 68.046875 20.03125 67.441406 19.707031 66.863281 19.324219 C 66.289062 18.9375 65.753906 18.5 65.265625 18.011719 C 64.777344 17.519531 64.339844 16.988281 63.953125 16.414062 C 63.570312 15.835938 63.242188 15.226562 62.980469 14.589844 C 62.714844 13.949219 62.511719 13.289062 62.378906 12.609375 C 62.242188 11.929688 62.175781 11.242188 62.175781 10.550781 C 62.175781 9.859375 62.242188 9.171875 62.378906 8.492188 C 62.511719 7.8125 62.714844 7.152344 62.980469 6.511719 C 63.242188 5.871094 63.570312 5.265625 63.953125 4.6875 C 64.339844 4.113281 64.777344 3.578125 65.265625 3.089844 C 65.753906 2.601562 66.289062 2.164062 66.863281 1.777344 C 67.441406 1.394531 68.046875 1.066406 68.6875 0.804688 C 69.328125 0.539062 69.988281 0.335938 70.667969 0.203125 C 71.347656 0.0664062 72.035156 0 72.726562 0 C 73.417969 0 74.105469 0.0664062 74.785156 0.203125 C 75.464844 0.335938 76.125 0.539062 76.765625 0.804688 C 77.402344 1.066406 78.011719 1.394531 78.585938 1.777344 C 79.164062 2.164062 79.695312 2.601562 80.1875 3.089844 C 80.675781 3.578125 81.113281 4.113281 81.5 4.6875 C 81.882812 5.265625 82.207031 5.871094 82.472656 6.511719 C 82.738281 7.152344 82.9375 7.8125 83.074219 8.492188 C 83.210938 9.171875 83.277344 9.859375 83.277344 10.550781 Z M 83.277344 10.550781 " fill-opacity="1" fill-rule="nonzero"/></g><path fill="#5c534e" d="M 71.324219 9.042969 L 71.324219 8.46875 C 71.132812 8.445312 70.9375 8.425781 70.738281 8.425781 C 68.34375 8.425781 66.394531 10.375 66.394531 12.773438 C 66.394531 14.242188 67.128906 15.542969 68.25 16.328125 C 67.527344 15.550781 67.097656 14.511719 67.097656 13.371094 C 67.097656 11.007812 68.976562 9.097656 71.324219 9.042969 Z M 71.324219 9.042969 " fill-opacity="1" fill-rule="nonzero"/><path fill="#5c534e" d="M 71.429688 15.367188 C 72.496094 15.367188 73.382812 14.503906 73.421875 13.445312 L 73.429688 4 L 75.140625 4 C 75.140625 4 75.140625 3.984375 75.140625 3.984375 C 75.105469 3.792969 75.085938 3.589844 75.085938 3.386719 L 72.722656 3.386719 L 72.71875 12.847656 C 72.679688 13.90625 71.808594 14.757812 70.738281 14.757812 C 70.40625 14.757812 70.09375 14.671875 69.820312 14.527344 C 70.179688 15.027344 70.765625 15.367188 71.429688 15.367188 Z M 71.429688 15.367188 " fill-opacity="1" fill-rule="nonzero"/><path fill="#5c534e" d="M 78.367188 7.222656 L 78.367188 6.667969 C 77.710938 6.667969 77.09375 6.472656 76.582031 6.136719 C 77.039062 6.664062 77.660156 7.070312 78.367188 7.222656 Z M 78.367188 7.222656 " fill-opacity="1" fill-rule="nonzero"/><path fill="#5c534e" d="M 76.582031 6.136719 C 76.078125 5.5625 75.773438 4.808594 75.773438 3.984375 L 75.128906 3.984375 C 75.296875 4.882812 75.839844 5.65625 76.582031 6.136719 Z M 76.582031 6.136719 " fill-opacity="1" fill-rule="nonzero"/><path fill="#5c534e" d="M 70.738281 10.769531 C 69.644531 10.769531 68.742188 11.675781 68.742188 12.769531 C 68.742188 13.53125 69.1875 14.195312 69.820312 14.527344 C 69.585938 14.203125 69.445312 13.800781 69.445312 13.371094 C 69.445312 12.277344 70.332031 11.386719 71.429688 11.386719 C 71.632812 11.386719 71.828125 11.417969 72.011719 11.476562 L 72.011719 9.070312 C 71.820312 9.042969 71.625 9.027344 71.429688 9.027344 C 71.394531 9.027344 71.359375 9.027344 71.324219 9.027344 L 71.316406 9.027344 C 71.316406 9.027344 71.308594 10.851562 71.308594 10.851562 C 71.125 10.796875 70.945312 10.769531 70.738281 10.769531 Z M 70.738281 10.769531 " fill-opacity="1" fill-rule="nonzero"/><path fill="#5c534e" d="M 78.367188 7.195312 L 78.359375 7.195312 L 78.359375 9.015625 C 77.132812 9.015625 75.996094 8.613281 75.070312 7.949219 L 75.070312 12.769531 C 75.070312 15.167969 73.136719 17.101562 70.738281 17.101562 C 69.816406 17.101562 68.957031 16.824219 68.25 16.328125 C 69.042969 17.179688 70.175781 17.714844 71.429688 17.714844 C 73.824219 17.714844 75.773438 15.765625 75.773438 13.371094 L 75.773438 8.574219 C 76.699219 9.238281 77.832031 9.628906 79.054688 9.628906 L 79.054688 7.269531 C 78.820312 7.269531 78.589844 7.242188 78.367188 7.195312 Z M 78.367188 7.195312 " fill-opacity="1" fill-rule="nonzero"/><path fill="#5c534e" d="M 75.085938 12.769531 L 75.085938 7.972656 C 76.011719 8.636719 77.144531 9.03125 78.367188 9.03125 L 78.367188 7.195312 C 77.660156 7.042969 77.039062 6.664062 76.578125 6.136719 C 75.839844 5.65625 75.304688 4.882812 75.140625 3.984375 L 73.410156 3.984375 L 73.40625 13.445312 C 73.367188 14.503906 72.496094 15.355469 71.425781 15.355469 C 70.765625 15.355469 70.179688 15.027344 69.816406 14.527344 C 69.1875 14.195312 68.753906 13.53125 68.753906 12.769531 C 68.753906 11.675781 69.644531 10.785156 70.738281 10.785156 C 70.945312 10.785156 71.140625 10.820312 71.324219 10.878906 L 71.324219 9.027344 C 68.976562 9.082031 67.082031 11.007812 67.082031 13.371094 C 67.082031 14.511719 67.527344 15.550781 68.25 16.328125 C 68.953125 16.824219 69.8125 17.113281 70.738281 17.113281 C 73.132812 17.113281 75.082031 15.167969 75.082031 12.769531 Z M 75.085938 12.769531 " fill-opacity="1" fill-rule="nonzero"/></svg>