<svg width="410" height="119" viewBox="0 0 410 119" fill="none" xmlns="http://www.w3.org/2000/svg">
<path d="M8.5935e-05 46L20.9761 12.4H38.5921L59.5201 46H43.5361L40.6561 40.768H19.0081L15.9841 46H8.5935e-05ZM25.3921 29.632L23.7601 32.512H36.0961L34.5121 29.632L30.5281 21.472H29.5681L25.3921 29.632ZM61.994 46V12.4H76.874V34.864H121.514V46H61.994ZM152.046 46.768C145.966 46.768 140.686 46.08 136.206 44.704C131.758 43.296 128.318 41.296 125.886 38.704C123.486 36.112 122.286 33.04 122.286 29.488V28.912C122.286 25.328 123.486 22.256 125.886 19.696C128.318 17.104 131.758 15.12 136.206 13.744C140.686 12.336 145.966 11.632 152.046 11.632C158.158 11.632 163.438 12.336 167.886 13.744C172.334 15.12 175.758 17.104 178.158 19.696C180.59 22.256 181.806 25.328 181.806 28.912V29.488C181.806 33.04 180.59 36.112 178.158 38.704C175.758 41.296 172.334 43.296 167.886 44.704C163.438 46.08 158.158 46.768 152.046 46.768ZM152.046 35.728C156.43 35.728 159.886 35.184 162.414 34.096C164.974 32.976 166.254 31.44 166.254 29.488V28.912C166.254 26.96 164.974 25.44 162.414 24.352C159.886 23.232 156.43 22.672 152.046 22.672C147.694 22.672 144.238 23.232 141.678 24.352C139.118 25.44 137.838 26.96 137.838 28.912V29.488C137.838 31.44 139.118 32.976 141.678 34.096C144.238 35.184 147.694 35.728 152.046 35.728ZM214.974 46.768C195.134 46.768 185.214 40.384 185.214 27.616V12.4H200.094V27.136C200.094 32.864 205.054 35.728 214.974 35.728C224.894 35.728 229.854 32.864 229.854 27.136V12.4H244.734V27.616C244.734 40.384 234.814 46.768 214.974 46.768ZM249.681 46V12.4H297.537C300.961 12.4 303.585 13.168 305.409 14.704C307.233 16.208 308.145 18.288 308.145 20.944C308.145 22.992 307.521 24.656 306.273 25.936C305.025 27.216 303.073 28.096 300.417 28.576V29.536C303.329 29.792 305.521 30.624 306.993 32.032C308.465 33.408 309.201 35.2 309.201 37.408V46H293.649V37.888C293.649 37.312 293.473 36.848 293.121 36.496C292.769 36.144 292.289 35.968 291.681 35.968H264.561V46H249.681ZM264.561 26.848H290.721C291.329 26.848 291.809 26.656 292.161 26.272C292.513 25.888 292.689 25.376 292.689 24.736C292.689 24.032 292.497 23.504 292.113 23.152C291.729 22.8 291.265 22.624 290.721 22.624H264.561V26.848ZM310.453 46L331.429 12.4H349.045L369.973 46H353.989L351.109 40.768H329.461L326.437 46H310.453ZM335.845 29.632L334.213 32.512H346.549L344.965 29.632L340.981 21.472H340.021L335.845 29.632Z" fill="black"/>
<path d="M135.188 67.3125H140.567V67.3828C139.981 67.3828 139.483 67.5879 139.073 67.998C138.663 68.3965 138.458 68.8887 138.458 69.4746V93.8203C138.458 94.4062 138.663 94.9043 139.073 95.3145C139.483 95.7246 139.981 95.9297 140.567 95.9297V96H133.097V95.9297C133.671 95.9297 134.163 95.7246 134.573 95.3145C134.983 94.9043 135.188 94.4062 135.188 93.8203V68.1035L123.481 83.0977L121.407 85.752L121.091 85.3477L108.927 69.9492V93.8379C108.927 94.4121 109.132 94.9043 109.542 95.3145C109.952 95.7246 110.444 95.9297 111.019 95.9297V96H106.343V95.9297C106.929 95.9297 107.421 95.7246 107.819 95.3145C108.229 94.9043 108.435 94.4121 108.435 93.8379V69.457C108.435 69.4102 108.435 69.3633 108.435 69.3164C108.317 68.3906 107.831 67.7754 106.976 67.4707C106.776 67.4121 106.565 67.3828 106.343 67.3828V67.3125H111.019L123.165 82.6934L135.188 67.3125ZM162.941 93.6094C162.941 94.2891 163.052 94.7051 163.275 94.8574C163.509 95.0098 163.796 95.0215 164.136 94.8926C164.488 94.7637 164.851 94.5938 165.226 94.3828C164.851 94.8867 164.359 95.2852 163.749 95.5781C163.152 95.8711 162.537 96.0176 161.904 96.0176C161.271 96.0176 160.732 95.8301 160.287 95.4551C159.853 95.0801 159.636 94.4648 159.636 93.6094V92.5371C159.156 93.2285 158.435 93.9199 157.474 94.6113C156.513 95.291 155.312 95.7363 153.871 95.9473C153.355 96.0176 152.851 96.0527 152.359 96.0527C150.238 96.0527 148.538 95.4492 147.261 94.2422C146.148 93.1172 145.679 91.7109 145.855 90.0234C145.878 89.4961 146.13 88.8457 146.611 88.0723C147.091 87.2871 147.941 86.5723 149.16 85.9277C150.39 85.2832 152.142 84.9023 154.415 84.7852C155.599 84.75 156.619 84.8027 157.474 84.9434C158.329 85.0723 159.05 85.2422 159.636 85.4531V83.0977C159.636 82.0898 159.443 81.1113 159.056 80.1621C158.669 79.2129 158.113 78.4336 157.386 77.8242C156.671 77.2148 155.822 76.9102 154.837 76.9102C153.912 76.9102 153.144 77.0742 152.535 77.4023C151.925 77.7305 151.427 78.1406 151.04 78.6328C150.665 79.1133 150.372 79.5996 150.162 80.0918C149.962 80.584 149.816 81.0059 149.722 81.3574C149.511 81.9199 149.148 82.2012 148.632 82.2012C148.316 82.2012 148.046 82.0898 147.824 81.8672C147.601 81.6445 147.49 81.375 147.49 81.0586C147.49 80.8945 147.519 80.7422 147.578 80.6016C147.683 80.2148 147.871 79.7812 148.14 79.3008C148.41 78.8086 148.808 78.3398 149.335 77.8945C149.863 77.4492 150.572 77.0801 151.462 76.7871C152.353 76.4941 153.49 76.3477 154.872 76.3477C156.396 76.3477 157.673 76.5352 158.704 76.9102C159.736 77.2852 160.562 77.7891 161.183 78.4219C161.816 79.0547 162.267 79.7754 162.537 80.584C162.806 81.3926 162.941 82.2305 162.941 83.0977V93.6094ZM153.818 95.4551C155.435 95.1855 156.73 94.6406 157.703 93.8203C158.675 92.9883 159.32 92.2559 159.636 91.623V85.9453C158.886 85.6875 158.037 85.4941 157.087 85.3652C156.15 85.2246 155.242 85.1953 154.363 85.2773C152.804 85.4648 151.662 85.8926 150.935 86.5605C150.208 87.2168 149.74 87.9199 149.529 88.6699C149.318 89.4082 149.206 90 149.195 90.4453C149.183 90.5273 149.177 90.5977 149.177 90.6562C149.107 91.1953 149.183 91.875 149.406 92.6953C149.628 93.5039 150.085 94.207 150.777 94.8047C151.468 95.3906 152.482 95.6074 153.818 95.4551ZM175.963 93.8203C175.963 94.4062 176.168 94.9043 176.578 95.3145C176.988 95.7129 177.486 95.9121 178.072 95.9121V95.9824H170.601V95.9121C171.176 95.9121 171.668 95.7129 172.078 95.3145C172.488 94.9043 172.693 94.4062 172.693 93.8203C172.693 93.8203 172.693 93.2578 172.693 92.1328C172.693 90.9961 172.693 89.5898 172.693 87.9141C172.693 86.2383 172.693 84.5566 172.693 82.8691C172.693 81.1816 172.693 79.7402 172.693 78.5449C172.693 77.959 172.488 77.4609 172.078 77.0508C171.668 76.6406 171.176 76.4355 170.601 76.4355V76.3652H173.431C174.135 76.3652 174.732 76.6172 175.224 77.1211C175.717 77.6133 175.963 78.2109 175.963 78.9141C175.963 80.0039 175.963 81.375 175.963 83.0273C175.963 84.668 175.963 86.3086 175.963 87.9492C175.963 89.5781 175.963 90.9434 175.963 92.0449C175.963 93.1465 175.963 93.7383 175.963 93.8203ZM172.201 72.8672C172.201 72.4219 172.359 72.041 172.676 71.7246C172.992 71.4082 173.373 71.25 173.818 71.25C174.263 71.25 174.644 71.4082 174.961 71.7246C175.277 72.041 175.435 72.4219 175.435 72.8672C175.435 73.3125 175.277 73.6934 174.961 74.0098C174.644 74.3262 174.263 74.4844 173.818 74.4844C173.373 74.4844 172.992 74.3262 172.676 74.0098C172.359 73.6934 172.201 73.3125 172.201 72.8672ZM195.981 85.9629C197.586 86.6543 198.688 87.457 199.285 88.3711C199.895 89.2734 200.141 90.1875 200.024 91.1133C199.906 92.0391 199.572 92.8652 199.022 93.5918C198.483 94.3066 197.867 94.8164 197.176 95.1211C196.227 95.4961 195.295 95.7363 194.381 95.8418C193.467 95.9473 192.699 95.9941 192.078 95.9824C190.004 95.9355 188.211 95.6016 186.699 94.9805C185.188 94.3594 184.244 93.7852 183.869 93.2578C183.74 93.0703 183.676 92.8535 183.676 92.6074C183.676 92.291 183.787 92.0215 184.01 91.7988C184.233 91.5762 184.502 91.4648 184.819 91.4648C185.1 91.4648 185.346 91.5527 185.557 91.7285C185.592 91.7637 185.627 91.7988 185.662 91.834C185.85 92.0215 186.043 92.2441 186.242 92.502C186.582 92.9238 186.992 93.3633 187.473 93.8203C187.965 94.2773 188.58 94.6699 189.319 94.998C190.057 95.3145 190.977 95.4727 192.078 95.4727C192.688 95.4727 193.473 95.4082 194.434 95.2793C195.406 95.1387 196.279 94.8867 197.053 94.5234C198.424 93.832 199.022 92.9883 198.846 91.9922C198.67 90.9961 197.481 90.0469 195.278 89.1445C194.879 88.9922 194.522 88.8574 194.205 88.7402C193.666 88.5293 193.092 88.3125 192.483 88.0898C191.873 87.8555 191.065 87.5566 190.057 87.1934C188.779 86.748 187.596 86.1445 186.506 85.3828C185.416 84.6211 184.631 83.7305 184.151 82.7109C183.682 81.6914 183.729 80.5664 184.291 79.3359C184.819 78.3984 185.504 77.7188 186.348 77.2969C187.203 76.875 188.035 76.6113 188.844 76.5059C189.664 76.4004 190.285 76.3594 190.707 76.3828C192.793 76.4414 194.592 76.8105 196.104 77.4902C197.627 78.1699 198.565 78.7734 198.916 79.3008C199.045 79.4883 199.11 79.7051 199.11 79.9512C199.11 79.9512 199.11 79.957 199.11 79.9688C199.11 80.2852 198.998 80.5547 198.776 80.7773C198.553 81 198.283 81.1113 197.967 81.1113C197.662 81.1113 197.399 81.0059 197.176 80.7949C197.176 80.7949 197.17 80.7949 197.158 80.7949C197.158 80.7832 197.158 80.7773 197.158 80.7773C196.959 80.5781 196.754 80.3379 196.543 80.0566C196.074 79.3887 195.401 78.7266 194.522 78.0703C193.654 77.4023 192.383 77.0098 190.707 76.8926C190.274 76.8691 189.664 76.9102 188.879 77.0156C188.106 77.1211 187.356 77.3613 186.629 77.7363C185.903 78.0996 185.404 78.6621 185.135 79.4238C184.947 80.1387 185.158 80.7891 185.768 81.375C186.377 81.9492 187.168 82.4531 188.141 82.8867C189.125 83.3203 190.069 83.6953 190.971 84.0117C192.201 84.4688 193.115 84.8145 193.713 85.0488C194.322 85.2832 194.838 85.4883 195.26 85.6641C195.483 85.7578 195.723 85.8574 195.981 85.9629ZM220.762 94.9805C218.231 96.2695 215.682 96.5332 213.116 95.7715C210.561 95.0098 208.575 93.3984 207.157 90.9375C205.868 88.4062 205.598 85.8633 206.348 83.3086C207.11 80.7422 208.721 78.7559 211.182 77.3496C213.713 76.0488 216.256 75.7793 218.811 76.541C221.378 77.3027 223.37 78.9141 224.788 81.375C226.077 83.9062 226.34 86.4551 225.579 89.0215C224.817 91.5762 223.212 93.5625 220.762 94.9805ZM211.428 77.7715C209.975 78.6035 209.085 79.834 208.756 81.4629C208.44 83.0801 208.551 84.8145 209.09 86.666C209.641 88.5059 210.497 90.1816 211.657 91.6934C212.829 93.2051 214.182 94.2715 215.717 94.8926C217.253 95.502 218.852 95.3848 220.516 94.541C222.063 93.6504 223.018 92.4023 223.381 90.7969C223.745 89.1914 223.651 87.4922 223.1 85.6992C222.549 83.9062 221.671 82.2773 220.463 80.8125C219.268 79.3359 217.879 78.2812 216.297 77.6484C214.727 77.0156 213.104 77.0566 211.428 77.7715ZM244.946 76.6113C243.024 76.6113 241.319 77.1738 239.831 78.2988C238.354 79.4238 237.329 80.877 236.755 82.6582C236.755 84.2871 236.755 85.9512 236.755 87.6504C236.755 89.3496 236.755 90.7793 236.755 91.9395C236.755 93.0996 236.755 93.7266 236.755 93.8203C236.755 94.4062 236.96 94.9043 237.37 95.3145C237.78 95.7129 238.278 95.9121 238.864 95.9121V95.9824H231.394V95.9121C231.968 95.9121 232.46 95.7129 232.87 95.3145C233.28 94.9043 233.485 94.4062 233.485 93.8203C233.485 93.8203 233.485 93.2578 233.485 92.1328C233.485 90.9961 233.485 89.5898 233.485 87.9141C233.485 86.2383 233.485 84.5566 233.485 82.8691C233.485 81.1816 233.485 79.7402 233.485 78.5449C233.485 77.959 233.28 77.4609 232.87 77.0508C232.46 76.6406 231.968 76.4355 231.394 76.4355V76.3652H234.224C234.927 76.3652 235.524 76.6172 236.017 77.1211C236.509 77.6133 236.755 78.2109 236.755 78.9141C236.755 79.582 236.755 80.3789 236.755 81.3047C237.505 79.7461 238.606 78.4922 240.06 77.543C241.513 76.5938 243.142 76.1191 244.946 76.1191H245.069C246.499 76.1191 247.776 76.4297 248.901 77.0508C250.026 77.6602 250.911 78.5156 251.556 79.6172C252.2 80.7188 252.522 81.9902 252.522 83.4316V93.8203C252.522 94.4062 252.728 94.9043 253.138 95.3145C253.548 95.7129 254.04 95.9121 254.614 95.9121V95.9824H247.161V95.9121C247.712 95.9121 248.181 95.7305 248.567 95.3672C248.966 95.0039 249.188 94.541 249.235 93.9785V83.4316C249.235 82.2598 249.077 81.1523 248.761 80.1094C248.456 79.0664 247.993 78.2227 247.372 77.5781C246.751 76.9336 245.983 76.6113 245.069 76.6113H244.946Z" fill="black"/>
</svg>
