<svg width="300" height="80" viewBox="0 0 300 80" fill="none" xmlns="http://www.w3.org/2000/svg">
<path d="M133.198 5.56672C128.981 5.74883 126.089 6.37923 123.574 7.28981C120.968 8.24243 118.769 9.50323 116.57 11.5485C114.371 13.6078 113.016 15.6672 112.007 18.0907C111.043 20.4442 110.38 23.1199 110.184 27.0424C110.004 30.9649 109.958 32.2257 109.973 42.2421C110.004 52.2445 110.049 53.5053 110.244 57.4418C110.455 61.3643 111.118 64.026 112.112 66.3795C113.121 68.8031 114.477 70.8484 116.691 72.8937C118.905 74.939 121.104 76.1998 123.724 77.1384C126.24 78.049 129.131 78.6654 133.349 78.8335C137.566 79.0016 138.921 79.0436 149.675 79.0156C160.444 79.0016 161.784 78.9596 166.017 78.7774C170.234 78.5813 173.111 77.9509 175.626 77.0403C178.231 76.0877 180.445 74.8269 182.644 72.7816C184.843 70.7223 186.184 68.677 187.193 66.2394C188.172 63.8999 188.835 61.2102 189.015 57.3017C189.196 53.3652 189.241 52.1044 189.226 42.102C189.211 32.0856 189.151 30.8388 188.955 26.9023C188.759 22.9798 188.081 20.3041 187.102 17.9646C186.078 15.5271 184.723 13.4818 182.524 11.4365C180.31 9.39116 178.096 8.13035 175.49 7.20576C172.975 6.29518 170.083 5.67879 165.866 5.51068C161.634 5.32857 160.293 5.28654 149.524 5.31456C138.771 5.32857 137.415 5.37059 133.198 5.56672ZM133.65 72.1932C129.794 72.0391 127.701 71.4368 126.3 70.9324C124.447 70.274 123.122 69.4755 121.736 68.1867C120.336 66.8979 119.477 65.6791 118.754 63.956C118.212 62.6672 117.564 60.7059 117.384 57.1196C117.188 53.2391 117.143 52.0624 117.112 42.2281C117.097 32.3798 117.143 31.2171 117.323 27.3366C117.489 23.7363 118.137 21.7891 118.664 20.4862C119.387 18.7631 120.245 17.5444 121.616 16.2415C123.001 14.9527 124.327 14.1542 126.179 13.4818C127.565 12.9634 129.674 12.3611 133.529 12.1929C137.701 12.0108 138.951 11.9688 149.54 11.9548C160.113 11.9268 161.378 11.9688 165.55 12.1369C169.42 12.291 171.514 12.8934 172.915 13.3977C174.767 14.0561 176.093 14.8546 177.478 16.1435C178.864 17.4323 179.722 18.6511 180.445 20.3742C180.988 21.677 181.65 23.6242 181.831 27.2105C182.027 31.105 182.072 32.2678 182.087 42.102C182.102 51.9503 182.072 53.1131 181.891 56.9935C181.726 60.5938 181.078 62.5411 180.536 63.8439C179.828 65.567 178.969 66.7998 177.584 68.0886C176.198 69.3774 174.873 70.1759 173.02 70.8484C171.634 71.3527 169.541 71.9691 165.67 72.1372C161.498 72.3193 160.248 72.3613 149.66 72.3754C139.087 72.3894 137.837 72.3613 133.65 72.1932ZM165.956 22.4615C165.971 24.9131 168.095 26.8883 170.716 26.8743C173.351 26.8743 175.475 24.885 175.475 22.4475C175.46 20.0099 173.336 18.0347 170.701 18.0347C168.08 18.0347 165.956 20.0239 165.956 22.4615ZM129.252 42.2001C129.282 52.6508 138.409 61.1122 149.645 61.0841C160.881 61.0701 169.978 52.5807 169.948 42.1301C169.933 31.6794 160.805 23.218 149.555 23.246C138.334 23.26 129.237 31.7494 129.252 42.2001ZM136.391 42.1861C136.376 35.4058 142.28 29.8862 149.57 29.8862C156.874 29.8722 162.793 35.3497 162.809 42.1441C162.824 48.9244 156.92 54.4439 149.63 54.4579C142.34 54.4719 136.406 48.9664 136.391 42.1861Z" fill="white"/>
<mask id="mask0_220_40" style="mask-type:luminance" maskUnits="userSpaceOnUse" x="0" y="6" width="82" height="73">
<path d="M0 6.3457H81.4172V78.2188H0V6.3457Z" fill="white"/>
</mask>
<g mask="url(#mask0_220_40)">
<path d="M80.927 42.1334C80.927 22.3778 62.8207 6.35938 40.4712 6.35938C18.1216 6.35938 0 22.3778 0 42.1334C0 58.8966 13.0666 72.9788 30.698 76.8513V53.0606H22.3495V42.1334H30.698V37.4213C30.698 25.2484 36.9173 19.602 50.4434 19.602C53.0016 19.602 57.4286 20.0488 59.2362 20.4957V30.3938C58.2864 30.3126 56.6321 30.2584 54.5641 30.2584C47.9312 30.2584 45.373 32.479 45.373 38.2608V42.1199H58.5775L56.3104 53.0606H45.373V77.6367C65.4095 75.4973 80.927 60.4131 80.927 42.1199V42.1334Z" fill="white"/>
</g>
<path d="M250.358 34.4423V32.2552C249.556 32.1659 248.737 32.0916 247.902 32.0916C237.866 32.0916 229.697 39.5156 229.697 48.6506C229.697 54.2447 232.775 59.199 237.473 62.1895C234.445 59.2288 232.644 55.2713 232.644 50.9269C232.644 41.9258 240.519 34.6505 250.358 34.4423Z" fill="white"/>
<path d="M250.8 58.5293C255.27 58.5293 258.986 55.2413 259.15 51.2094L259.183 15.2347H266.354V15.1752C266.206 14.4462 266.125 13.6726 266.125 12.8989H256.22L256.203 48.9331C256.039 52.965 252.389 56.2084 247.903 56.2084C246.511 56.2084 245.201 55.8811 244.055 55.3306C245.561 57.2349 248.017 58.5293 250.8 58.5293Z" fill="white"/>
<path d="M279.878 27.5096V25.3969C277.127 25.3969 274.54 24.653 272.396 23.3735C274.311 25.382 276.914 26.9293 279.878 27.5096Z" fill="white"/>
<path d="M272.395 23.3735C270.283 21.1864 269.006 18.315 269.006 15.1758H266.304C267.008 18.5977 269.284 21.5435 272.395 23.3735Z" fill="white"/>
<path d="M247.903 41.0176C243.319 41.0176 239.537 44.4693 239.537 48.6351C239.537 51.5362 241.403 54.0655 244.055 55.3301C243.073 54.0952 242.484 52.5628 242.484 50.9263C242.484 46.7605 246.2 43.3683 250.801 43.3683C251.652 43.3683 252.47 43.4873 253.24 43.7105V34.5457C252.438 34.4416 251.619 34.3821 250.801 34.3821C250.653 34.3821 250.506 34.3821 250.358 34.3821H250.326L250.293 41.33C249.524 41.1217 248.77 41.0176 247.903 41.0176Z" fill="white"/>
<path d="M279.877 27.4048H279.844V34.3379C274.703 34.3379 269.939 32.8054 266.059 30.2762V48.6355C266.059 57.7705 257.955 65.135 247.903 65.135C244.039 65.135 240.437 64.0787 237.474 62.1892C240.797 65.4326 245.545 67.4709 250.8 67.4709C260.836 67.4709 269.006 60.0468 269.006 50.9267V32.6567C272.886 35.1859 277.634 36.6737 282.759 36.6737V27.6875C281.776 27.6875 280.81 27.5833 279.877 27.4048Z" fill="white"/>
</svg>
